<mxfile host="app.diagrams.net" modified="2024-01-02T05:59:16.770Z" agent="Mozilla/5.0 (Macintosh; Intel Mac OS X 10_15_7) AppleWebKit/537.36 (KHTML, like Gecko) Chrome/120.0.0.0 Safari/537.36" etag="3EUcTwOi5A2t54rE420W" version="22.1.16" type="github">
  <diagram name="第 1 页" id="dlPJFF2X0IWA5hCCwlar">
    <mxGraphModel dx="1228" dy="834" grid="1" gridSize="10" guides="1" tooltips="1" connect="1" arrows="1" fold="1" page="1" pageScale="1" pageWidth="827" pageHeight="1169" math="0" shadow="0">
      <root>
        <mxCell id="0" />
        <mxCell id="1" parent="0" />
        <mxCell id="QY712nlO2Z2DFu7i5m6_-4" style="edgeStyle=orthogonalEdgeStyle;rounded=0;orthogonalLoop=1;jettySize=auto;html=1;exitX=0.5;exitY=1;exitDx=0;exitDy=0;entryX=0;entryY=0.5;entryDx=0;entryDy=0;" edge="1" parent="1" source="QY712nlO2Z2DFu7i5m6_-1" target="QY712nlO2Z2DFu7i5m6_-2">
          <mxGeometry relative="1" as="geometry" />
        </mxCell>
        <mxCell id="QY712nlO2Z2DFu7i5m6_-5" style="edgeStyle=orthogonalEdgeStyle;rounded=0;orthogonalLoop=1;jettySize=auto;html=1;exitX=0.5;exitY=1;exitDx=0;exitDy=0;entryX=0;entryY=0.5;entryDx=0;entryDy=0;" edge="1" parent="1" source="QY712nlO2Z2DFu7i5m6_-1" target="QY712nlO2Z2DFu7i5m6_-3">
          <mxGeometry relative="1" as="geometry" />
        </mxCell>
        <mxCell id="QY712nlO2Z2DFu7i5m6_-1" value="创建项目" style="rounded=1;whiteSpace=wrap;html=1;" vertex="1" parent="1">
          <mxGeometry x="30" y="70" width="100" height="40" as="geometry" />
        </mxCell>
        <mxCell id="QY712nlO2Z2DFu7i5m6_-13" style="edgeStyle=orthogonalEdgeStyle;rounded=0;orthogonalLoop=1;jettySize=auto;html=1;exitX=1;exitY=0.5;exitDx=0;exitDy=0;entryX=0;entryY=0.5;entryDx=0;entryDy=0;" edge="1" parent="1" source="QY712nlO2Z2DFu7i5m6_-2" target="QY712nlO2Z2DFu7i5m6_-10">
          <mxGeometry relative="1" as="geometry" />
        </mxCell>
        <mxCell id="QY712nlO2Z2DFu7i5m6_-2" value="创建Mix主服务" style="rounded=1;whiteSpace=wrap;html=1;" vertex="1" parent="1">
          <mxGeometry x="110" y="140" width="100" height="40" as="geometry" />
        </mxCell>
        <mxCell id="QY712nlO2Z2DFu7i5m6_-11" style="edgeStyle=orthogonalEdgeStyle;rounded=0;orthogonalLoop=1;jettySize=auto;html=1;exitX=1;exitY=0.5;exitDx=0;exitDy=0;entryX=0;entryY=0.5;entryDx=0;entryDy=0;" edge="1" parent="1" source="QY712nlO2Z2DFu7i5m6_-3" target="QY712nlO2Z2DFu7i5m6_-8">
          <mxGeometry relative="1" as="geometry" />
        </mxCell>
        <mxCell id="QY712nlO2Z2DFu7i5m6_-12" style="edgeStyle=orthogonalEdgeStyle;rounded=0;orthogonalLoop=1;jettySize=auto;html=1;exitX=1;exitY=0.5;exitDx=0;exitDy=0;entryX=0;entryY=0.5;entryDx=0;entryDy=0;" edge="1" parent="1" source="QY712nlO2Z2DFu7i5m6_-3" target="QY712nlO2Z2DFu7i5m6_-9">
          <mxGeometry relative="1" as="geometry">
            <Array as="points">
              <mxPoint x="230" y="240" />
              <mxPoint x="230" y="295" />
            </Array>
          </mxGeometry>
        </mxCell>
        <mxCell id="QY712nlO2Z2DFu7i5m6_-3" value="导入Mix子服务" style="rounded=1;whiteSpace=wrap;html=1;" vertex="1" parent="1">
          <mxGeometry x="110" y="220" width="100" height="40" as="geometry" />
        </mxCell>
        <mxCell id="QY712nlO2Z2DFu7i5m6_-6" value="创建" style="text;html=1;strokeColor=none;fillColor=none;align=center;verticalAlign=middle;whiteSpace=wrap;rounded=0;" vertex="1" parent="1">
          <mxGeometry x="30" y="145" width="60" height="30" as="geometry" />
        </mxCell>
        <mxCell id="QY712nlO2Z2DFu7i5m6_-7" value="导入" style="text;html=1;strokeColor=none;fillColor=none;align=center;verticalAlign=middle;whiteSpace=wrap;rounded=0;" vertex="1" parent="1">
          <mxGeometry x="30" y="223" width="60" height="30" as="geometry" />
        </mxCell>
        <mxCell id="QY712nlO2Z2DFu7i5m6_-8" value="mix子服务脚手架" style="rounded=0;whiteSpace=wrap;html=1;" vertex="1" parent="1">
          <mxGeometry x="240" y="225" width="96" height="30" as="geometry" />
        </mxCell>
        <mxCell id="QY712nlO2Z2DFu7i5m6_-9" value="git repo" style="rounded=0;whiteSpace=wrap;html=1;" vertex="1" parent="1">
          <mxGeometry x="240" y="280" width="96" height="30" as="geometry" />
        </mxCell>
        <mxCell id="QY712nlO2Z2DFu7i5m6_-15" style="edgeStyle=orthogonalEdgeStyle;rounded=0;orthogonalLoop=1;jettySize=auto;html=1;exitX=1;exitY=0.5;exitDx=0;exitDy=0;entryX=0;entryY=0.5;entryDx=0;entryDy=0;" edge="1" parent="1" source="QY712nlO2Z2DFu7i5m6_-10" target="QY712nlO2Z2DFu7i5m6_-14">
          <mxGeometry relative="1" as="geometry" />
        </mxCell>
        <mxCell id="QY712nlO2Z2DFu7i5m6_-10" value="mix主服务脚手架" style="rounded=0;whiteSpace=wrap;html=1;" vertex="1" parent="1">
          <mxGeometry x="240" y="145" width="96" height="30" as="geometry" />
        </mxCell>
        <mxCell id="QY712nlO2Z2DFu7i5m6_-14" value="创建项目落库" style="rounded=1;whiteSpace=wrap;html=1;fillColor=#d5e8d4;strokeColor=#82b366;" vertex="1" parent="1">
          <mxGeometry x="410" y="140" width="100" height="40" as="geometry" />
        </mxCell>
        <mxCell id="QY712nlO2Z2DFu7i5m6_-18" style="edgeStyle=orthogonalEdgeStyle;rounded=0;orthogonalLoop=1;jettySize=auto;html=1;exitX=0.1;exitY=0.5;exitDx=0;exitDy=0;exitPerimeter=0;" edge="1" parent="1" source="QY712nlO2Z2DFu7i5m6_-17">
          <mxGeometry relative="1" as="geometry">
            <mxPoint x="344.0000000000001" y="270" as="sourcePoint" />
            <mxPoint x="410" y="160" as="targetPoint" />
            <Array as="points">
              <mxPoint x="376" y="270" />
              <mxPoint x="376" y="160" />
            </Array>
          </mxGeometry>
        </mxCell>
        <mxCell id="QY712nlO2Z2DFu7i5m6_-21" style="edgeStyle=orthogonalEdgeStyle;rounded=0;orthogonalLoop=1;jettySize=auto;html=1;exitX=0.1;exitY=0.5;exitDx=0;exitDy=0;exitPerimeter=0;entryX=0;entryY=0.5;entryDx=0;entryDy=0;" edge="1" parent="1" source="QY712nlO2Z2DFu7i5m6_-17" target="QY712nlO2Z2DFu7i5m6_-20">
          <mxGeometry relative="1" as="geometry" />
        </mxCell>
        <mxCell id="QY712nlO2Z2DFu7i5m6_-17" value="" style="shape=curlyBracket;whiteSpace=wrap;html=1;rounded=1;flipH=1;labelPosition=right;verticalLabelPosition=middle;align=left;verticalAlign=middle;" vertex="1" parent="1">
          <mxGeometry x="344" y="240" width="16" height="60" as="geometry" />
        </mxCell>
        <mxCell id="QY712nlO2Z2DFu7i5m6_-24" style="edgeStyle=orthogonalEdgeStyle;rounded=0;orthogonalLoop=1;jettySize=auto;html=1;exitX=1;exitY=0.5;exitDx=0;exitDy=0;entryX=0;entryY=0.5;entryDx=0;entryDy=0;" edge="1" parent="1" source="QY712nlO2Z2DFu7i5m6_-20" target="QY712nlO2Z2DFu7i5m6_-23">
          <mxGeometry relative="1" as="geometry" />
        </mxCell>
        <mxCell id="QY712nlO2Z2DFu7i5m6_-20" value="mix子应用" style="rhombus;whiteSpace=wrap;html=1;" vertex="1" parent="1">
          <mxGeometry x="410" y="247.5" width="80" height="45" as="geometry" />
        </mxCell>
        <mxCell id="QY712nlO2Z2DFu7i5m6_-23" value="child/create" style="rounded=1;whiteSpace=wrap;html=1;fillColor=#d5e8d4;strokeColor=#82b366;" vertex="1" parent="1">
          <mxGeometry x="520" y="250" width="100" height="40" as="geometry" />
        </mxCell>
        <mxCell id="QY712nlO2Z2DFu7i5m6_-25" value="1、创建项目" style="text;html=1;strokeColor=none;fillColor=none;align=center;verticalAlign=middle;whiteSpace=wrap;rounded=0;fontStyle=1;fontSize=14;" vertex="1" parent="1">
          <mxGeometry x="30" y="20" width="80" height="30" as="geometry" />
        </mxCell>
        <mxCell id="QY712nlO2Z2DFu7i5m6_-27" value="&lt;h1&gt;&lt;font style=&quot;font-size: 14px;&quot;&gt;child/create接口定义&lt;/font&gt;&lt;/h1&gt;&lt;p&gt;1、该子应用没有环境时，找到主应用环境。为该子应用创建对应的环境，并将子应用添加到app表中；&lt;/p&gt;&lt;p&gt;2、主应用也没有环境时，不做任何操作&lt;/p&gt;" style="text;html=1;strokeColor=#d79b00;fillColor=#ffe6cc;spacing=5;spacingTop=-20;whiteSpace=wrap;overflow=hidden;rounded=0;" vertex="1" parent="1">
          <mxGeometry x="630" y="247.5" width="263" height="132.5" as="geometry" />
        </mxCell>
        <mxCell id="QY712nlO2Z2DFu7i5m6_-28" value="2、创建环境" style="text;html=1;strokeColor=none;fillColor=none;align=center;verticalAlign=middle;whiteSpace=wrap;rounded=0;fontStyle=1;fontSize=14;" vertex="1" parent="1">
          <mxGeometry x="30" y="410" width="80" height="30" as="geometry" />
        </mxCell>
        <mxCell id="QY712nlO2Z2DFu7i5m6_-33" style="edgeStyle=orthogonalEdgeStyle;rounded=0;orthogonalLoop=1;jettySize=auto;html=1;exitX=1;exitY=0.5;exitDx=0;exitDy=0;entryX=0;entryY=0.5;entryDx=0;entryDy=0;" edge="1" parent="1" source="QY712nlO2Z2DFu7i5m6_-29" target="QY712nlO2Z2DFu7i5m6_-30">
          <mxGeometry relative="1" as="geometry" />
        </mxCell>
        <mxCell id="QY712nlO2Z2DFu7i5m6_-34" style="edgeStyle=orthogonalEdgeStyle;rounded=0;orthogonalLoop=1;jettySize=auto;html=1;exitX=1;exitY=0.5;exitDx=0;exitDy=0;entryX=0;entryY=0.5;entryDx=0;entryDy=0;" edge="1" parent="1" source="QY712nlO2Z2DFu7i5m6_-29" target="QY712nlO2Z2DFu7i5m6_-31">
          <mxGeometry relative="1" as="geometry">
            <Array as="points">
              <mxPoint x="140" y="470" />
              <mxPoint x="140" y="535" />
            </Array>
          </mxGeometry>
        </mxCell>
        <mxCell id="QY712nlO2Z2DFu7i5m6_-35" style="edgeStyle=orthogonalEdgeStyle;rounded=0;orthogonalLoop=1;jettySize=auto;html=1;exitX=1;exitY=0.5;exitDx=0;exitDy=0;entryX=0;entryY=0.5;entryDx=0;entryDy=0;" edge="1" parent="1" source="QY712nlO2Z2DFu7i5m6_-29" target="QY712nlO2Z2DFu7i5m6_-32">
          <mxGeometry relative="1" as="geometry">
            <Array as="points">
              <mxPoint x="140" y="470" />
              <mxPoint x="140" y="600" />
            </Array>
          </mxGeometry>
        </mxCell>
        <mxCell id="QY712nlO2Z2DFu7i5m6_-29" value="创建环境" style="rounded=1;whiteSpace=wrap;html=1;" vertex="1" parent="1">
          <mxGeometry x="30" y="450" width="100" height="40" as="geometry" />
        </mxCell>
        <mxCell id="QY712nlO2Z2DFu7i5m6_-30" value="环境标识" style="rounded=0;whiteSpace=wrap;html=1;" vertex="1" parent="1">
          <mxGeometry x="163" y="455" width="96" height="30" as="geometry" />
        </mxCell>
        <mxCell id="QY712nlO2Z2DFu7i5m6_-31" value="环境名称" style="rounded=0;whiteSpace=wrap;html=1;" vertex="1" parent="1">
          <mxGeometry x="163" y="520" width="96" height="30" as="geometry" />
        </mxCell>
        <mxCell id="QY712nlO2Z2DFu7i5m6_-32" value="环境域名" style="rounded=0;whiteSpace=wrap;html=1;" vertex="1" parent="1">
          <mxGeometry x="163" y="584.5" width="96" height="30" as="geometry" />
        </mxCell>
        <mxCell id="QY712nlO2Z2DFu7i5m6_-36" value="" style="shape=curlyBracket;whiteSpace=wrap;html=1;rounded=1;flipH=1;labelPosition=right;verticalLabelPosition=middle;align=left;verticalAlign=middle;" vertex="1" parent="1">
          <mxGeometry x="270" y="470" width="16" height="130" as="geometry" />
        </mxCell>
        <mxCell id="QY712nlO2Z2DFu7i5m6_-39" value="&lt;h1&gt;&lt;font style=&quot;font-size: 14px;&quot;&gt;创建环境都做了啥&lt;/font&gt;&lt;/h1&gt;&lt;p&gt;1、根据环境域名获取项目原有apollo配置：/site-config；&lt;/p&gt;&lt;p&gt;2、为主应用创建环境；&lt;/p&gt;&lt;p&gt;3、项目环境&lt;font color=&quot;#990000&quot;&gt;域名映射&lt;/font&gt;关系创建并发布&lt;/p&gt;&lt;p&gt;4、主应用&lt;font color=&quot;#990000&quot;&gt;apollo配置+common表&lt;/font&gt;创建&lt;/p&gt;&lt;p&gt;5、获取&lt;font color=&quot;#990000&quot;&gt;子应用列表&lt;/font&gt;，为每个子应用&lt;font color=&quot;#990000&quot;&gt;创建对应环境&lt;/font&gt;，并获取到应用部署记录，&lt;font color=&quot;#990000&quot;&gt;添加到app表中&lt;/font&gt;&lt;/p&gt;" style="text;html=1;strokeColor=#d79b00;fillColor=#ffe6cc;spacing=5;spacingTop=-20;whiteSpace=wrap;overflow=hidden;rounded=0;" vertex="1" parent="1">
          <mxGeometry x="300" y="450" width="330" height="200" as="geometry" />
        </mxCell>
        <mxCell id="QY712nlO2Z2DFu7i5m6_-40" value="3、更新配置" style="text;html=1;strokeColor=none;fillColor=none;align=center;verticalAlign=middle;whiteSpace=wrap;rounded=0;fontStyle=1;fontSize=14;" vertex="1" parent="1">
          <mxGeometry x="40" y="720" width="80" height="30" as="geometry" />
        </mxCell>
        <mxCell id="QY712nlO2Z2DFu7i5m6_-41" value="SDK配置" style="rounded=1;whiteSpace=wrap;html=1;" vertex="1" parent="1">
          <mxGeometry x="40" y="760" width="100" height="40" as="geometry" />
        </mxCell>
        <mxCell id="QY712nlO2Z2DFu7i5m6_-42" value="Lib依赖配置" style="rounded=1;whiteSpace=wrap;html=1;" vertex="1" parent="1">
          <mxGeometry x="40" y="820" width="100" height="40" as="geometry" />
        </mxCell>
        <mxCell id="QY712nlO2Z2DFu7i5m6_-43" value="Layout配置" style="rounded=1;whiteSpace=wrap;html=1;" vertex="1" parent="1">
          <mxGeometry x="40" y="880" width="100" height="40" as="geometry" />
        </mxCell>
        <mxCell id="QY712nlO2Z2DFu7i5m6_-44" value="" style="shape=curlyBracket;whiteSpace=wrap;html=1;rounded=1;flipH=1;labelPosition=right;verticalLabelPosition=middle;align=left;verticalAlign=middle;" vertex="1" parent="1">
          <mxGeometry x="152" y="775" width="16" height="130" as="geometry" />
        </mxCell>
        <mxCell id="QY712nlO2Z2DFu7i5m6_-46" value="Settings" style="rounded=1;whiteSpace=wrap;html=1;" vertex="1" parent="1">
          <mxGeometry x="190" y="820" width="100" height="40" as="geometry" />
        </mxCell>
        <mxCell id="QY712nlO2Z2DFu7i5m6_-47" value="3、发布配置" style="text;html=1;strokeColor=none;fillColor=none;align=left;verticalAlign=middle;whiteSpace=wrap;rounded=0;fontStyle=1;fontSize=14;" vertex="1" parent="1">
          <mxGeometry x="40" y="1000" width="210" height="30" as="geometry" />
        </mxCell>
        <mxCell id="QY712nlO2Z2DFu7i5m6_-64" style="edgeStyle=orthogonalEdgeStyle;rounded=0;orthogonalLoop=1;jettySize=auto;html=1;exitX=0.5;exitY=1;exitDx=0;exitDy=0;entryX=0.5;entryY=0;entryDx=0;entryDy=0;" edge="1" parent="1" source="QY712nlO2Z2DFu7i5m6_-48" target="QY712nlO2Z2DFu7i5m6_-53">
          <mxGeometry relative="1" as="geometry" />
        </mxCell>
        <mxCell id="QY712nlO2Z2DFu7i5m6_-48" value="发布配置" style="rounded=1;whiteSpace=wrap;html=1;" vertex="1" parent="1">
          <mxGeometry x="40" y="1040" width="100" height="40" as="geometry" />
        </mxCell>
        <mxCell id="QY712nlO2Z2DFu7i5m6_-65" style="edgeStyle=orthogonalEdgeStyle;rounded=0;orthogonalLoop=1;jettySize=auto;html=1;exitX=0.5;exitY=1;exitDx=0;exitDy=0;entryX=0.5;entryY=0;entryDx=0;entryDy=0;" edge="1" parent="1" source="QY712nlO2Z2DFu7i5m6_-53" target="QY712nlO2Z2DFu7i5m6_-54">
          <mxGeometry relative="1" as="geometry" />
        </mxCell>
        <mxCell id="QY712nlO2Z2DFu7i5m6_-53" value="选择审批人" style="rounded=1;whiteSpace=wrap;html=1;" vertex="1" parent="1">
          <mxGeometry x="40" y="1110" width="100" height="40" as="geometry" />
        </mxCell>
        <mxCell id="QY712nlO2Z2DFu7i5m6_-66" style="edgeStyle=orthogonalEdgeStyle;rounded=0;orthogonalLoop=1;jettySize=auto;html=1;exitX=1;exitY=0.5;exitDx=0;exitDy=0;entryX=0;entryY=0.5;entryDx=0;entryDy=0;" edge="1" parent="1" source="QY712nlO2Z2DFu7i5m6_-54" target="QY712nlO2Z2DFu7i5m6_-55">
          <mxGeometry relative="1" as="geometry" />
        </mxCell>
        <mxCell id="QY712nlO2Z2DFu7i5m6_-67" style="edgeStyle=orthogonalEdgeStyle;rounded=0;orthogonalLoop=1;jettySize=auto;html=1;exitX=1;exitY=0.5;exitDx=0;exitDy=0;entryX=0;entryY=0.5;entryDx=0;entryDy=0;" edge="1" parent="1" source="QY712nlO2Z2DFu7i5m6_-54" target="QY712nlO2Z2DFu7i5m6_-57">
          <mxGeometry relative="1" as="geometry" />
        </mxCell>
        <mxCell id="QY712nlO2Z2DFu7i5m6_-68" style="edgeStyle=orthogonalEdgeStyle;rounded=0;orthogonalLoop=1;jettySize=auto;html=1;exitX=1;exitY=0.5;exitDx=0;exitDy=0;entryX=0;entryY=0.5;entryDx=0;entryDy=0;" edge="1" parent="1" source="QY712nlO2Z2DFu7i5m6_-54" target="QY712nlO2Z2DFu7i5m6_-58">
          <mxGeometry relative="1" as="geometry" />
        </mxCell>
        <mxCell id="QY712nlO2Z2DFu7i5m6_-69" style="edgeStyle=orthogonalEdgeStyle;rounded=0;orthogonalLoop=1;jettySize=auto;html=1;exitX=1;exitY=0.5;exitDx=0;exitDy=0;entryX=0;entryY=0.5;entryDx=0;entryDy=0;" edge="1" parent="1" source="QY712nlO2Z2DFu7i5m6_-54" target="QY712nlO2Z2DFu7i5m6_-59">
          <mxGeometry relative="1" as="geometry" />
        </mxCell>
        <mxCell id="QY712nlO2Z2DFu7i5m6_-75" style="edgeStyle=orthogonalEdgeStyle;rounded=0;orthogonalLoop=1;jettySize=auto;html=1;exitX=0.5;exitY=1;exitDx=0;exitDy=0;entryX=0.5;entryY=0;entryDx=0;entryDy=0;" edge="1" parent="1" source="QY712nlO2Z2DFu7i5m6_-54" target="QY712nlO2Z2DFu7i5m6_-74">
          <mxGeometry relative="1" as="geometry" />
        </mxCell>
        <mxCell id="QY712nlO2Z2DFu7i5m6_-54" value="发起审批" style="rounded=1;whiteSpace=wrap;html=1;fillColor=#f8cecc;strokeColor=#b85450;" vertex="1" parent="1">
          <mxGeometry x="40" y="1180" width="100" height="40" as="geometry" />
        </mxCell>
        <mxCell id="QY712nlO2Z2DFu7i5m6_-55" value="创建发布单，状态为审批中" style="rounded=0;whiteSpace=wrap;html=1;" vertex="1" parent="1">
          <mxGeometry x="180" y="1185" width="160" height="30" as="geometry" />
        </mxCell>
        <mxCell id="QY712nlO2Z2DFu7i5m6_-57" value="创建审批单，状态为审批中" style="rounded=0;whiteSpace=wrap;html=1;" vertex="1" parent="1">
          <mxGeometry x="180" y="1240" width="160" height="30" as="geometry" />
        </mxCell>
        <mxCell id="QY712nlO2Z2DFu7i5m6_-58" value="同步配置到Apollo" style="rounded=0;whiteSpace=wrap;html=1;" vertex="1" parent="1">
          <mxGeometry x="180" y="1300" width="160" height="30" as="geometry" />
        </mxCell>
        <mxCell id="QY712nlO2Z2DFu7i5m6_-70" style="edgeStyle=orthogonalEdgeStyle;rounded=0;orthogonalLoop=1;jettySize=auto;html=1;exitX=0.5;exitY=1;exitDx=0;exitDy=0;entryX=0;entryY=0.5;entryDx=0;entryDy=0;" edge="1" parent="1" source="QY712nlO2Z2DFu7i5m6_-59" target="QY712nlO2Z2DFu7i5m6_-60">
          <mxGeometry relative="1" as="geometry" />
        </mxCell>
        <mxCell id="QY712nlO2Z2DFu7i5m6_-71" style="edgeStyle=orthogonalEdgeStyle;rounded=0;orthogonalLoop=1;jettySize=auto;html=1;exitX=0.5;exitY=1;exitDx=0;exitDy=0;entryX=0;entryY=0.5;entryDx=0;entryDy=0;" edge="1" parent="1" source="QY712nlO2Z2DFu7i5m6_-59" target="QY712nlO2Z2DFu7i5m6_-61">
          <mxGeometry relative="1" as="geometry" />
        </mxCell>
        <mxCell id="QY712nlO2Z2DFu7i5m6_-72" style="edgeStyle=orthogonalEdgeStyle;rounded=0;orthogonalLoop=1;jettySize=auto;html=1;exitX=0.5;exitY=1;exitDx=0;exitDy=0;entryX=0;entryY=0.5;entryDx=0;entryDy=0;" edge="1" parent="1" source="QY712nlO2Z2DFu7i5m6_-59" target="QY712nlO2Z2DFu7i5m6_-62">
          <mxGeometry relative="1" as="geometry" />
        </mxCell>
        <mxCell id="QY712nlO2Z2DFu7i5m6_-73" style="edgeStyle=orthogonalEdgeStyle;rounded=0;orthogonalLoop=1;jettySize=auto;html=1;exitX=0.5;exitY=1;exitDx=0;exitDy=0;entryX=0;entryY=0.5;entryDx=0;entryDy=0;" edge="1" parent="1" source="QY712nlO2Z2DFu7i5m6_-59" target="QY712nlO2Z2DFu7i5m6_-63">
          <mxGeometry relative="1" as="geometry" />
        </mxCell>
        <mxCell id="QY712nlO2Z2DFu7i5m6_-59" value="发起DC审批通知" style="rounded=0;whiteSpace=wrap;html=1;" vertex="1" parent="1">
          <mxGeometry x="180" y="1360" width="160" height="30" as="geometry" />
        </mxCell>
        <mxCell id="QY712nlO2Z2DFu7i5m6_-60" value="注册流程应用，不会重复注册" style="rounded=0;whiteSpace=wrap;html=1;" vertex="1" parent="1">
          <mxGeometry x="290" y="1420" width="160" height="30" as="geometry" />
        </mxCell>
        <mxCell id="QY712nlO2Z2DFu7i5m6_-61" value="创建BPM审批任务" style="rounded=0;whiteSpace=wrap;html=1;" vertex="1" parent="1">
          <mxGeometry x="290" y="1470" width="160" height="30" as="geometry" />
        </mxCell>
        <mxCell id="QY712nlO2Z2DFu7i5m6_-62" value="审批任务businessKey落库" style="rounded=0;whiteSpace=wrap;html=1;" vertex="1" parent="1">
          <mxGeometry x="290" y="1520" width="160" height="30" as="geometry" />
        </mxCell>
        <mxCell id="QY712nlO2Z2DFu7i5m6_-63" value="发起DC审批" style="rounded=0;whiteSpace=wrap;html=1;" vertex="1" parent="1">
          <mxGeometry x="290" y="1570" width="160" height="30" as="geometry" />
        </mxCell>
        <mxCell id="QY712nlO2Z2DFu7i5m6_-83" style="edgeStyle=orthogonalEdgeStyle;rounded=0;orthogonalLoop=1;jettySize=auto;html=1;exitX=0.5;exitY=1;exitDx=0;exitDy=0;entryX=0.5;entryY=0;entryDx=0;entryDy=0;" edge="1" parent="1" source="QY712nlO2Z2DFu7i5m6_-74" target="QY712nlO2Z2DFu7i5m6_-82">
          <mxGeometry relative="1" as="geometry" />
        </mxCell>
        <mxCell id="QY712nlO2Z2DFu7i5m6_-74" value="审批完成" style="rounded=1;whiteSpace=wrap;html=1;fillColor=#f8cecc;strokeColor=#b85450;" vertex="1" parent="1">
          <mxGeometry x="40" y="1640" width="100" height="40" as="geometry" />
        </mxCell>
        <mxCell id="QY712nlO2Z2DFu7i5m6_-76" value="" style="shape=curlyBracket;whiteSpace=wrap;html=1;rounded=1;flipH=1;labelPosition=right;verticalLabelPosition=middle;align=left;verticalAlign=middle;" vertex="1" parent="1">
          <mxGeometry x="362" y="1185" width="16" height="205" as="geometry" />
        </mxCell>
        <mxCell id="QY712nlO2Z2DFu7i5m6_-78" value="审批中状态" style="text;html=1;strokeColor=none;fillColor=none;align=center;verticalAlign=middle;whiteSpace=wrap;rounded=0;" vertex="1" parent="1">
          <mxGeometry x="390" y="1273" width="110" height="30" as="geometry" />
        </mxCell>
        <mxCell id="QY712nlO2Z2DFu7i5m6_-79" value="" style="shape=curlyBracket;whiteSpace=wrap;html=1;rounded=1;flipH=1;labelPosition=right;verticalLabelPosition=middle;align=left;verticalAlign=middle;" vertex="1" parent="1">
          <mxGeometry x="474" y="1420" width="16" height="170" as="geometry" />
        </mxCell>
        <mxCell id="QY712nlO2Z2DFu7i5m6_-80" value="审批发起流程" style="text;html=1;strokeColor=none;fillColor=none;align=center;verticalAlign=middle;whiteSpace=wrap;rounded=0;" vertex="1" parent="1">
          <mxGeometry x="510" y="1490" width="80" height="30" as="geometry" />
        </mxCell>
        <mxCell id="QY712nlO2Z2DFu7i5m6_-81" value="待发布状态，发布表（PENDING）审批表（COMPLETED）" style="text;html=1;strokeColor=none;fillColor=none;align=center;verticalAlign=middle;whiteSpace=wrap;rounded=0;" vertex="1" parent="1">
          <mxGeometry x="163" y="1645" width="327" height="30" as="geometry" />
        </mxCell>
        <mxCell id="QY712nlO2Z2DFu7i5m6_-90" style="edgeStyle=orthogonalEdgeStyle;rounded=0;orthogonalLoop=1;jettySize=auto;html=1;exitX=1;exitY=0.5;exitDx=0;exitDy=0;entryX=0;entryY=0.5;entryDx=0;entryDy=0;" edge="1" parent="1" source="QY712nlO2Z2DFu7i5m6_-82" target="QY712nlO2Z2DFu7i5m6_-84">
          <mxGeometry relative="1" as="geometry" />
        </mxCell>
        <mxCell id="QY712nlO2Z2DFu7i5m6_-91" style="edgeStyle=orthogonalEdgeStyle;rounded=0;orthogonalLoop=1;jettySize=auto;html=1;exitX=1;exitY=0.5;exitDx=0;exitDy=0;entryX=0;entryY=0.5;entryDx=0;entryDy=0;" edge="1" parent="1" source="QY712nlO2Z2DFu7i5m6_-82" target="QY712nlO2Z2DFu7i5m6_-85">
          <mxGeometry relative="1" as="geometry">
            <Array as="points">
              <mxPoint x="150" y="1740" />
              <mxPoint x="150" y="1795" />
            </Array>
          </mxGeometry>
        </mxCell>
        <mxCell id="QY712nlO2Z2DFu7i5m6_-92" style="edgeStyle=orthogonalEdgeStyle;rounded=0;orthogonalLoop=1;jettySize=auto;html=1;exitX=1;exitY=0.5;exitDx=0;exitDy=0;entryX=0;entryY=0.5;entryDx=0;entryDy=0;" edge="1" parent="1" source="QY712nlO2Z2DFu7i5m6_-82" target="QY712nlO2Z2DFu7i5m6_-86">
          <mxGeometry relative="1" as="geometry">
            <Array as="points">
              <mxPoint x="150" y="1740" />
              <mxPoint x="150" y="1855" />
            </Array>
          </mxGeometry>
        </mxCell>
        <mxCell id="QY712nlO2Z2DFu7i5m6_-93" style="edgeStyle=orthogonalEdgeStyle;rounded=0;orthogonalLoop=1;jettySize=auto;html=1;exitX=1;exitY=0.5;exitDx=0;exitDy=0;entryX=0;entryY=0.5;entryDx=0;entryDy=0;" edge="1" parent="1" source="QY712nlO2Z2DFu7i5m6_-82" target="QY712nlO2Z2DFu7i5m6_-87">
          <mxGeometry relative="1" as="geometry">
            <Array as="points">
              <mxPoint x="150" y="1740" />
              <mxPoint x="150" y="1915" />
            </Array>
          </mxGeometry>
        </mxCell>
        <mxCell id="QY712nlO2Z2DFu7i5m6_-94" style="edgeStyle=orthogonalEdgeStyle;rounded=0;orthogonalLoop=1;jettySize=auto;html=1;exitX=1;exitY=0.5;exitDx=0;exitDy=0;entryX=0;entryY=0.5;entryDx=0;entryDy=0;" edge="1" parent="1" target="QY712nlO2Z2DFu7i5m6_-88">
          <mxGeometry relative="1" as="geometry">
            <mxPoint x="127" y="1737.5" as="sourcePoint" />
            <mxPoint x="168" y="1972.5" as="targetPoint" />
            <Array as="points">
              <mxPoint x="127" y="1740" />
              <mxPoint x="150" y="1740" />
              <mxPoint x="150" y="1975" />
            </Array>
          </mxGeometry>
        </mxCell>
        <mxCell id="QY712nlO2Z2DFu7i5m6_-95" style="edgeStyle=orthogonalEdgeStyle;rounded=0;orthogonalLoop=1;jettySize=auto;html=1;exitX=1;exitY=0.5;exitDx=0;exitDy=0;entryX=0;entryY=0.5;entryDx=0;entryDy=0;" edge="1" parent="1" source="QY712nlO2Z2DFu7i5m6_-82" target="QY712nlO2Z2DFu7i5m6_-89">
          <mxGeometry relative="1" as="geometry">
            <Array as="points">
              <mxPoint x="150" y="1740" />
              <mxPoint x="150" y="2035" />
            </Array>
          </mxGeometry>
        </mxCell>
        <mxCell id="QY712nlO2Z2DFu7i5m6_-82" value="一键全量部署" style="rounded=1;whiteSpace=wrap;html=1;" vertex="1" parent="1">
          <mxGeometry x="40" y="1720" width="100" height="40" as="geometry" />
        </mxCell>
        <mxCell id="QY712nlO2Z2DFu7i5m6_-84" value="更新发布表为&amp;nbsp;COMPLETED" style="rounded=0;whiteSpace=wrap;html=1;" vertex="1" parent="1">
          <mxGeometry x="181" y="1725" width="192" height="30" as="geometry" />
        </mxCell>
        <mxCell id="QY712nlO2Z2DFu7i5m6_-85" value="更新审批表为&amp;nbsp;TERMINATED" style="rounded=0;whiteSpace=wrap;html=1;" vertex="1" parent="1">
          <mxGeometry x="181" y="1780" width="192" height="30" as="geometry" />
        </mxCell>
        <mxCell id="QY712nlO2Z2DFu7i5m6_-86" value="更新发布表config字段配置" style="rounded=0;whiteSpace=wrap;html=1;" vertex="1" parent="1">
          <mxGeometry x="181" y="1840" width="192" height="30" as="geometry" />
        </mxCell>
        <mxCell id="QY712nlO2Z2DFu7i5m6_-87" value="发布apollo配置" style="rounded=0;whiteSpace=wrap;html=1;" vertex="1" parent="1">
          <mxGeometry x="181" y="1900" width="192" height="30" as="geometry" />
        </mxCell>
        <mxCell id="QY712nlO2Z2DFu7i5m6_-88" value="发布历史落库" style="rounded=0;whiteSpace=wrap;html=1;" vertex="1" parent="1">
          <mxGeometry x="181" y="1960" width="192" height="30" as="geometry" />
        </mxCell>
        <mxCell id="QY712nlO2Z2DFu7i5m6_-89" value="同步审批流状态为TERMINATED" style="rounded=0;whiteSpace=wrap;html=1;" vertex="1" parent="1">
          <mxGeometry x="181" y="2020" width="192" height="30" as="geometry" />
        </mxCell>
        <mxCell id="QY712nlO2Z2DFu7i5m6_-102" style="edgeStyle=orthogonalEdgeStyle;rounded=0;orthogonalLoop=1;jettySize=auto;html=1;exitX=0.5;exitY=1;exitDx=0;exitDy=0;entryX=0;entryY=0.5;entryDx=0;entryDy=0;" edge="1" parent="1" source="QY712nlO2Z2DFu7i5m6_-96" target="QY712nlO2Z2DFu7i5m6_-99">
          <mxGeometry relative="1" as="geometry" />
        </mxCell>
        <mxCell id="QY712nlO2Z2DFu7i5m6_-103" style="edgeStyle=orthogonalEdgeStyle;rounded=0;orthogonalLoop=1;jettySize=auto;html=1;exitX=0.5;exitY=1;exitDx=0;exitDy=0;entryX=0;entryY=0.5;entryDx=0;entryDy=0;" edge="1" parent="1" source="QY712nlO2Z2DFu7i5m6_-96" target="QY712nlO2Z2DFu7i5m6_-100">
          <mxGeometry relative="1" as="geometry" />
        </mxCell>
        <mxCell id="QY712nlO2Z2DFu7i5m6_-96" value="审批跳过" style="rounded=1;whiteSpace=wrap;html=1;fillColor=#f8cecc;strokeColor=#b85450;" vertex="1" parent="1">
          <mxGeometry x="630" y="1185" width="100" height="40" as="geometry" />
        </mxCell>
        <mxCell id="QY712nlO2Z2DFu7i5m6_-107" style="edgeStyle=orthogonalEdgeStyle;rounded=0;orthogonalLoop=1;jettySize=auto;html=1;exitX=0.5;exitY=1;exitDx=0;exitDy=0;entryX=0;entryY=0.5;entryDx=0;entryDy=0;" edge="1" parent="1" source="QY712nlO2Z2DFu7i5m6_-97" target="QY712nlO2Z2DFu7i5m6_-104">
          <mxGeometry relative="1" as="geometry" />
        </mxCell>
        <mxCell id="QY712nlO2Z2DFu7i5m6_-108" style="edgeStyle=orthogonalEdgeStyle;rounded=0;orthogonalLoop=1;jettySize=auto;html=1;exitX=0.5;exitY=1;exitDx=0;exitDy=0;entryX=0;entryY=0.5;entryDx=0;entryDy=0;" edge="1" parent="1" source="QY712nlO2Z2DFu7i5m6_-97" target="QY712nlO2Z2DFu7i5m6_-106">
          <mxGeometry relative="1" as="geometry" />
        </mxCell>
        <mxCell id="QY712nlO2Z2DFu7i5m6_-110" style="edgeStyle=orthogonalEdgeStyle;rounded=0;orthogonalLoop=1;jettySize=auto;html=1;exitX=0.5;exitY=1;exitDx=0;exitDy=0;entryX=0;entryY=0.5;entryDx=0;entryDy=0;" edge="1" parent="1" source="QY712nlO2Z2DFu7i5m6_-97" target="QY712nlO2Z2DFu7i5m6_-105">
          <mxGeometry relative="1" as="geometry" />
        </mxCell>
        <mxCell id="QY712nlO2Z2DFu7i5m6_-97" value="审批驳回" style="rounded=1;whiteSpace=wrap;html=1;fillColor=#f8cecc;strokeColor=#b85450;" vertex="1" parent="1">
          <mxGeometry x="1050" y="1185" width="100" height="40" as="geometry" />
        </mxCell>
        <mxCell id="QY712nlO2Z2DFu7i5m6_-99" value="审批表状态为&amp;nbsp;COMPLETED" style="rounded=0;whiteSpace=wrap;html=1;" vertex="1" parent="1">
          <mxGeometry x="708.5" y="1256" width="200" height="47" as="geometry" />
        </mxCell>
        <mxCell id="QY712nlO2Z2DFu7i5m6_-100" value="同步审批流，更新审批任务状态为COMPLETED" style="rounded=0;whiteSpace=wrap;html=1;" vertex="1" parent="1">
          <mxGeometry x="708.5" y="1323" width="200" height="50" as="geometry" />
        </mxCell>
        <mxCell id="QY712nlO2Z2DFu7i5m6_-104" value="审批表状态为&amp;nbsp;REJECTED" style="rounded=0;whiteSpace=wrap;html=1;" vertex="1" parent="1">
          <mxGeometry x="1119" y="1256" width="200" height="47" as="geometry" />
        </mxCell>
        <mxCell id="QY712nlO2Z2DFu7i5m6_-105" value="同步审批流，更新审批任务状态为REJECTED" style="rounded=0;whiteSpace=wrap;html=1;" vertex="1" parent="1">
          <mxGeometry x="1119" y="1390" width="200" height="50" as="geometry" />
        </mxCell>
        <mxCell id="QY712nlO2Z2DFu7i5m6_-106" value="发布表状态为&amp;nbsp;REJECTED" style="rounded=0;whiteSpace=wrap;html=1;" vertex="1" parent="1">
          <mxGeometry x="1119" y="1323" width="200" height="47" as="geometry" />
        </mxCell>
      </root>
    </mxGraphModel>
  </diagram>
</mxfile>
